<svg width="104" height="104" viewBox="0 0 104 104" fill="none" xmlns="http://www.w3.org/2000/svg">
<rect width="104" height="104" rx="30" fill="#222228"/>
<path d="M63.6875 65.2969H40.3107C34.6254 65.2969 30 60.4613 30 54.5175V39.7812C30 33.8365 34.6262 29 40.3125 29H63.6875C69.3738 29 74 33.8365 74 39.7812V54.5156C74 60.4604 69.3738 65.2969 63.6875 65.2969ZM40.3125 32.5937C36.5216 32.5937 33.4375 35.818 33.4375 39.7812V54.5175C33.4375 58.4796 36.5208 61.7031 40.3107 61.7031H63.6874C67.4783 61.7031 70.5624 58.4788 70.5624 54.5156V39.7812C70.5624 35.818 67.4783 32.5937 63.6874 32.5937H40.3125ZM61.9687 70.6875C61.9687 69.6951 61.1992 68.8906 60.2499 68.8906H43.75C42.8007 68.8906 42.0312 69.6951 42.0312 70.6875C42.0312 71.6799 42.8007 72.4844 43.75 72.4844H60.25C61.1993 72.4844 61.9687 71.6799 61.9687 70.6875ZM46.1563 52.1797C45.207 52.1797 44.4375 51.3752 44.4375 50.3828V45.3515C44.4375 42.3791 46.7506 39.9609 49.5938 39.9609H54.4922C55.4415 39.9609 56.211 40.7654 56.211 41.7578C56.211 42.7502 55.4415 43.5547 54.4922 43.5547H49.5938C48.6461 43.5547 47.875 44.3608 47.875 45.3516V50.3829C47.875 51.3752 47.1056 52.1797 46.1563 52.1797ZM58.9732 55.2472C59.6445 54.5454 59.6445 53.4076 58.9732 52.7059L53.3013 46.7762C52.6301 46.0744 51.5418 46.0744 50.8706 46.7762C50.1994 47.478 50.1993 48.6157 50.8706 49.3173L56.5424 55.247C56.878 55.598 57.318 55.7733 57.7578 55.7733C58.1976 55.7735 58.6375 55.598 58.9732 55.2472Z" fill="white"/>
</svg>
